HIERARCHY
ROOT Hips
{
    OFFSET 0.000000 0.000000 0.000000
    CHANNELS 6 Xposition Yposition Zposition Zrotation Xrotation Yrotation
    JOINT Spine
    {
        OFFSET -0.000000 14.517291 0.000000
        CHANNELS 3 Zrotation Xrotation Yrotation
        JOINT Spine1
        {
            OFFSET -0.000000 37.558300 0.000000
            CHANNELS 3 Zrotation Xrotation Yrotation
            JOINT Neck
            {
                OFFSET -0.000000 37.404057 3.400369
                CHANNELS 3 Zrotation Xrotation Yrotation
                JOINT Head
                {
                    OFFSET -0.000000 24.785618 -3.540803
                    CHANNELS 3 Zrotation Xrotation Yrotation
                    End Site
                    {
                        OFFSET -0.000000 35.408028 0.000000
                    }
                }
            }
            JOINT LeftShoulder
            {
                OFFSET 6.992933 33.973492 -0.192664
                CHANNELS 3 Zrotation Xrotation Yrotation
                JOINT LeftArm
                {
                    OFFSET 21.527611 0.000000 0.000000
                    CHANNELS 3 Zrotation Xrotation Yrotation
                    JOINT LeftForeArm
                    {
                        OFFSET 56.353916 0.000000 0.000000
                        CHANNELS 3 Zrotation Xrotation Yrotation
                        JOINT LeftHand
                        {
                            OFFSET 47.774071 0.000000 0.000000
                            CHANNELS 3 Zrotation Xrotation Yrotation
                            End Site
                            {
                                OFFSET 26.556021 0.000000 0.000000
                            }
                        }
                    }
                }
            }
            JOINT RightShoulder
            {
                OFFSET -7.065357 33.973492 -0.192664
                CHANNELS 3 Zrotation Xrotation Yrotation
                JOINT RightArm
                {
                    OFFSET -21.527611 0.000000 0.000000
                    CHANNELS 3 Zrotation Xrotation Yrotation
                    JOINT RightForeArm
                    {
                        OFFSET -56.353916 0.000000 0.000000
                        CHANNELS 3 Zrotation Xrotation Yrotation
                        JOINT RightHand
                        {
                            OFFSET -47.774071 0.000000 0.000000
                            CHANNELS 3 Zrotation Xrotation Yrotation
                            End Site
                            {
                                OFFSET -26.556021 0.000000 0.000000
                            }
                        }
                    }
                }
            }
        }
    }
    JOINT LeftUpLeg
    {
        OFFSET 17.704014 0.000000 0.000000
        CHANNELS 3 Zrotation Xrotation Yrotation
        JOINT LeftLeg
        {
            OFFSET -0.000000 -81.181816 0.000000
            CHANNELS 3 Zrotation Xrotation Yrotation
            JOINT LeftFoot
            {
                OFFSET -0.000000 -62.821102 0.000000
                CHANNELS 3 Zrotation Xrotation Yrotation
                JOINT LeftToeBase
                {
                    OFFSET -0.000000 -11.507608 26.556021
                    CHANNELS 3 Zrotation Xrotation Yrotation
                    End Site
                    {
                        OFFSET -0.000000 0.000000 7.081605
                    }
                }
            }
        }
    }
    JOINT RightUpLeg
    {
        OFFSET -17.704014 0.000000 0.000000
        CHANNELS 3 Zrotation Xrotation Yrotation
        JOINT RightLeg
        {
            OFFSET -0.000000 -81.181816 0.000000
            CHANNELS 3 Zrotation Xrotation Yrotation
            JOINT RightFoot
            {
                OFFSET -0.000000 -62.821102 0.000000
                CHANNELS 3 Zrotation Xrotation Yrotation
                JOINT RightToeBase
                {
                    OFFSET -0.000000 -11.507608 26.556021
                    CHANNELS 3 Zrotation Xrotation Yrotation
                    End Site
                    {
                        OFFSET -0.000000 0.000000 7.081605
                    }
                }
            }
        }
    }
}
MOTION
Frames:    4
Frame Time:    0.008333
-19.401196    162.784058    -79.266869    -8.783704    -21.933098    41.844898    2.305056    3.261380    -6.197298    3.758554    13.443589    -2.487482    16.965839    -2.918658    -0.868666    5.564307    0.097058    -3.097782    14.881468    6.507310    -24.799128    -24.889837    25.103685    -97.803703    35.873207    -63.897221    -68.265724    -11.232550    -48.677071    -23.248173    10.878573    9.037170    -7.128630    30.205318    18.368837    21.681597    -12.197174    3.165454    35.536358    -23.302647    0.523128    31.039473    24.104387    -0.399396    6.768009    -5.243329    38.359024    -16.134663    9.589164    -23.288963    35.402702    0.000000    0.000000    0.000000    -89.109627    -45.344933    -55.102539    8.385116    16.067259    -8.514204    19.800726    12.876885    -35.110432    0.000000    0.000000    0.000000    
-19.417011    162.802429    -79.280205    -8.802139    -21.932495    41.826004    2.314000    3.249338    -6.195024    3.759989    13.435678    -2.486606    16.985357    -2.924864    -0.859146    5.557706    0.118135    -3.094249    14.866103    6.483058    -24.768820    -24.886517    25.065874    -97.762558    35.771049    -63.927807    -68.373772    -11.122548    -48.762188    -23.152670    10.867194    9.026789    -7.130773    30.229574    18.529795    21.652166    -12.358150    3.019015    35.456055    -23.226107    0.431553    31.083549    24.111042    -0.405459    6.725469    -5.264702    38.336803    -16.107107    9.586582    -23.259178    35.416618    0.000000    0.000000    0.000000    -89.099915    -45.367210    -55.097687    8.388826    16.065790    -8.526456    19.792974    12.892778    -35.103607    0.000000    0.000000    0.000000    
-19.427820    162.827393    -79.287163    -8.813439    -21.946306    41.828362    2.327441    3.242613    -6.204882    3.762778    13.432165    -2.490039    17.003025    -2.906065    -0.848957    5.570231    0.108368    -3.081681    14.852817    6.457275    -24.752039    -24.917904    25.022188    -97.686989    35.608261    -63.944855    -68.546181    -11.050192    -48.830166    -23.089642    10.864660    9.027838    -7.150201    30.242973    18.565994    21.653900    -12.391972    2.984048    35.390182    -23.213669    0.391097    31.138062    24.120325    -0.391033    6.669861    -5.285362    38.282040    -16.063509    9.576374    -23.225218    35.428692    0.000000    0.000000    0.000000    -89.061310    -45.365562    -55.061069    8.387344    16.066826    -8.532221    19.790680    12.875607    -35.081512    0.000000    0.000000    0.000000    
-19.438013    162.855667    -79.292770    -8.822285    -21.966188    41.829716    2.344791    3.242852    -6.213890    3.753825    13.429100    -2.491699    17.048048    -2.879189    -0.830546    5.570319    0.069223    -3.064556    14.858443    6.446210    -24.730249    -24.967165    24.954586    -97.598648    35.373299    -63.944813    -68.802063    -11.020233    -48.877674    -23.025661    10.872929    9.011659    -7.147089    30.263672    18.608068    21.618435    -12.422855    2.964860    35.332848    -23.196175    0.366797    31.198116    24.140877    -0.369266    6.629257    -5.309171    38.234169    -16.064466    9.592541    -23.182739    35.453739    0.000000    0.000000    0.000000    -89.013985    -45.364170    -55.013836    8.397696    16.065922    -8.553350    19.779619    12.852845    -35.087200    0.000000    0.000000    0.000000    
